<svg width="280" height="72" viewBox="0 0 280 72" fill="none" xmlns="http://www.w3.org/2000/svg" role="img" aria-labelledby="title desc">
  <title id="title">Interface Lab</title>
  <desc id="desc">Logo mark and wordmark for Interface Lab portfolio.</desc>
  <rect width="280" height="72" rx="24" fill="#17201B"/>
  <rect x="10" y="10" width="52" height="52" rx="16" fill="#FFF7EA"/>
  <rect x="19" y="20" width="5" height="32" rx="2.5" fill="#17201B"/>
  <path d="M34 20H48C50.2091 20 52 21.7909 52 24V30C52 32.2091 50.2091 34 48 34H39V52H34V20Z" fill="#17201B"/>
  <rect x="39" y="25" width="8" height="4" rx="2" fill="#D85F2B"/>
  <circle cx="22" cy="54" r="3" fill="#D85F2B"/>
  <circle cx="52" cy="18" r="3" fill="#7F8F63"/>
  <path d="M25 54H52V21" stroke="#7F8F63" stroke-width="2" stroke-linecap="round" stroke-dasharray="4 5"/>
  <text x="76" y="32" fill="#FFF7EA" font-family="Manrope, Segoe UI, sans-serif" font-size="19" font-weight="800" letter-spacing="-0.7">Interface</text>
  <text x="76" y="53" fill="#D7B56D" font-family="Manrope, Segoe UI, sans-serif" font-size="19" font-weight="800" letter-spacing="-0.7">Lab</text>
  <path d="M170 24H252" stroke="#FFF7EA" stroke-opacity="0.16" stroke-width="2" stroke-linecap="round"/>
  <path d="M170 37H226" stroke="#FFF7EA" stroke-opacity="0.16" stroke-width="2" stroke-linecap="round"/>
  <path d="M170 50H242" stroke="#FFF7EA" stroke-opacity="0.16" stroke-width="2" stroke-linecap="round"/>
  <circle cx="259" cy="24" r="4" fill="#D85F2B"/>
  <circle cx="233" cy="37" r="4" fill="#7F8F63"/>
  <circle cx="249" cy="50" r="4" fill="#D7B56D"/>
</svg>
